<svg version="1.1" id="Layer_1" xmlns="http://www.w3.org/2000/svg" xmlns:xlink="http://www.w3.org/1999/xlink" x="0px" y="0px"
	 width="100%" viewBox="0 0 4096 1714" enable-background="new 0 0 4096 1714" xml:space="preserve">
<path fill="#000000" opacity="1.000000" stroke="none" 
	d="
M3108.000000,1716.000000 
	C2072.000244,1716.000000 1037.000366,1716.000000 2.000417,1716.000000 
	C2.000278,1144.666992 2.000278,573.333923 2.000139,2.000647 
	C1367.332886,2.000431 2732.665771,2.000431 4097.999023,2.000216 
	C4097.999023,573.332703 4097.999023,1144.665405 4097.999512,1715.999023 
	C3768.333252,1716.000000 3438.666748,1716.000000 3108.000000,1716.000000 
M2403.984863,1449.928467 
	C2403.984863,1449.928467 2404.004639,1450.061157 2405.510742,1450.027588 
	C2407.391846,1449.442627 2409.416504,1449.130859 2411.132324,1448.230835 
	C2429.210205,1438.748291 2446.280029,1427.726074 2461.105957,1413.607910 
	C2487.981934,1388.015015 2508.111816,1358.375732 2515.412598,1321.220459 
	C2517.467285,1310.764160 2519.398438,1300.269043 2521.914551,1289.920166 
	C2534.190186,1239.428345 2546.712646,1188.996338 2558.950684,1138.495361 
	C2560.495117,1132.122559 2563.367432,1126.897095 2567.615723,1121.969604 
	C2665.995361,1007.864746 2764.291992,893.688599 2862.564697,779.491577 
	C2864.475586,777.271118 2865.911377,774.641602 2867.568848,772.202881 
	C2868.383545,772.681763 2869.198486,773.160645 2870.013428,773.639526 
	C2890.343506,867.832031 2910.673584,962.024597 2931.355469,1057.847168 
	C2934.024658,1054.844849 2935.456055,1053.540527 2936.525391,1051.986938 
	C2954.096924,1026.458496 2971.529785,1000.833679 2989.252441,975.410889 
	C2992.133789,971.277405 2991.687012,967.591858 2990.735352,963.186523 
	C2966.826660,852.487610 2942.868164,741.799072 2919.237305,631.040649 
	C2896.025391,522.246033 2873.234863,413.361572 2850.100586,304.550385 
	C2844.342773,277.470764 2837.210938,250.755157 2825.033691,225.695526 
	C2819.162354,213.612335 2811.901611,202.482727 2801.516113,193.702057 
	C2780.726807,176.125076 2753.254150,175.137772 2731.543945,191.571915 
	C2726.282959,195.554413 2720.993896,200.109894 2717.365234,205.509262 
	C2710.342285,215.959518 2703.560059,226.773178 2698.355225,238.200180 
	C2688.658203,259.489197 2683.087158,282.204315 2678.003418,304.993286 
	C2660.306396,384.318237 2643.279541,463.800842 2624.695557,542.917603 
	C2604.511719,628.845398 2582.811523,714.416382 2561.883301,800.169983 
	C2524.531494,953.217651 2487.317627,1106.298828 2449.900146,1259.330444 
	C2444.367920,1281.956665 2438.037598,1304.387695 2430.974609,1327.881836 
	C2413.851318,1356.696533 2388.699219,1375.646362 2357.283447,1386.051880 
	C2304.204102,1403.632446 2253.443604,1397.504639 2205.482178,1368.949463 
	C2188.991699,1359.131592 2175.214844,1346.151978 2163.698730,1330.723267 
	C2158.732178,1324.069824 2156.344238,1317.231445 2156.395020,1308.646606 
	C2156.982422,1209.006104 2157.206787,1109.363403 2157.484375,1009.721130 
	C2157.511230,1000.059082 2157.315430,990.395020 2157.115234,980.734070 
	C2156.279785,940.421021 2154.698730,900.109253 2154.675781,859.796265 
	C2154.612305,748.157837 2155.003662,636.518066 2155.579834,524.880737 
	C2156.014893,440.572754 2156.969238,356.267273 2157.776367,271.961426 
	C2158.197266,227.980637 2158.853027,184.002060 2159.251465,140.021088 
	C2159.301025,134.539612 2158.418701,129.049698 2157.905762,122.805130 
	C2132.566406,126.067047 2109.507568,132.321838 2086.774414,139.833450 
	C2084.947021,140.437271 2083.405273,143.503799 2082.779541,145.721848 
	C2082.081055,148.196625 2082.541016,151.009964 2082.565186,153.675308 
	C2083.050537,206.988068 2084.254883,260.305603 2083.890137,313.612427 
	C2083.158447,420.580872 2080.960693,527.540649 2080.463867,634.509094 
	C2079.430420,857.119202 2079.113525,1079.732666 2078.480957,1302.344727 
	C2078.462891,1308.673096 2078.555664,1315.032104 2077.985840,1321.321533 
	C2077.081055,1331.303955 2079.318848,1340.383911 2083.871582,1349.232300 
	C2099.092285,1378.815063 2120.047363,1403.594971 2146.775146,1423.218384 
	C2203.165527,1464.620117 2266.398682,1480.092529 2335.589844,1471.193115 
	C2358.806641,1468.206909 2381.356934,1462.369873 2403.260742,1451.448242 
	C2403.711426,1451.032104 2403.997314,1450.523315 2403.984863,1449.928467 
M1513.192261,1007.826965 
	C1532.101562,1030.246094 1550.963013,1052.705688 1569.929199,1075.076538 
	C1624.029297,1138.887817 1678.126343,1202.701904 1732.381348,1266.381470 
	C1736.928345,1271.718262 1739.205444,1277.316895 1740.128296,1284.226807 
	C1747.673706,1340.724976 1757.217773,1396.873657 1772.063110,1451.972656 
	C1779.695679,1480.300537 1788.652954,1508.229492 1801.861450,1534.568115 
	C1809.833008,1550.463989 1819.295654,1565.329468 1833.266113,1576.766479 
	C1859.292969,1598.073853 1892.361694,1596.949951 1916.769409,1573.856812 
	C1920.625488,1570.208496 1924.219360,1566.205811 1927.466431,1562.005249 
	C1939.626465,1546.274414 1947.800049,1528.476562 1954.216553,1509.761841 
	C1977.586060,1441.601196 1989.331055,1371.027222 1997.797852,1299.787476 
	C2005.864502,1231.913574 2010.642456,1163.761719 2013.336426,1095.492432 
	C2017.793579,982.542847 2017.670654,869.589600 2012.607544,756.634644 
	C2008.352295,661.701111 2000.905518,567.067017 1987.946533,472.912598 
	C1980.265503,417.105835 1970.687134,361.634674 1956.011841,307.164062 
	C1948.634033,279.780121 1940.080078,252.800598 1927.512939,227.270737 
	C1919.654785,211.306885 1910.224976,196.387329 1896.551514,184.701447 
	C1881.600342,171.923538 1864.425415,166.214935 1844.667969,169.593674 
	C1827.295532,172.564560 1814.163696,182.353592 1803.194580,195.488205 
	C1791.958252,208.942856 1784.308594,224.476624 1777.774170,240.596405 
	C1764.950317,272.230743 1756.821533,305.218628 1750.064209,338.557068 
	C1736.872925,403.637695 1729.181885,469.467712 1723.531372,535.577698 
	C1716.375000,619.305115 1712.675903,703.194946 1712.269165,787.204529 
	C1712.028687,836.857483 1712.627808,886.527100 1713.719238,936.170044 
	C1714.583496,975.476990 1716.794678,1014.753967 1718.344116,1054.046753 
	C1718.546997,1059.190918 1719.733032,1063.637695 1723.291748,1067.736450 
	C1748.420654,1096.679932 1773.347168,1125.799072 1798.398071,1154.810425 
	C1799.685791,1156.301514 1801.523560,1157.317871 1804.401123,1159.568848 
	C1803.385010,1146.137939 1802.589722,1134.535278 1801.617065,1122.947266 
	C1795.202515,1046.531494 1791.863159,969.953552 1790.601685,893.306763 
	C1788.637207,773.943054 1791.392700,654.699219 1801.793213,535.703186 
	C1806.757080,478.910767 1813.433472,422.348907 1824.089478,366.319153 
	C1830.132324,334.545837 1837.356567,303.051941 1849.049438,272.774994 
	C1850.673950,268.568237 1852.669434,264.504730 1855.405518,258.308746 
	C1858.515381,264.714111 1860.862549,269.009033 1862.738892,273.500610 
	C1875.120483,303.138336 1883.078247,334.110321 1889.941162,365.375183 
	C1904.535645,431.860016 1913.497681,499.204407 1920.592163,566.844421 
	C1929.880005,655.395142 1935.179321,744.210205 1937.266602,833.180115 
	C1940.559814,973.549988 1938.251953,1113.798828 1924.000122,1253.629639 
	C1918.966431,1303.016357 1913.211060,1352.326294 1903.906250,1401.140015 
	C1898.344849,1430.314941 1891.234497,1459.068726 1880.142578,1486.704346 
	C1878.249878,1491.419800 1875.958862,1495.975342 1872.840088,1502.827637 
	C1868.563843,1492.842896 1864.947021,1485.376221 1862.117554,1477.622192 
	C1850.102783,1444.695068 1841.081543,1411.019653 1835.279541,1376.367920 
	C1829.332031,1340.848999 1824.608276,1305.232300 1822.395264,1269.307373 
	C1821.209473,1250.058838 1821.566040,1250.036865 1809.337524,1235.452759 
	C1808.909180,1234.941895 1808.476440,1234.434814 1808.044800,1233.926880 
	C1757.096924,1174.005249 1706.147461,1114.085083 1655.201904,1054.161621 
	C1592.163696,980.014465 1529.126099,905.866699 1466.101685,831.707825 
	C1463.782349,828.978516 1461.604004,826.129150 1459.113525,823.029114 
	C1462.025269,819.741516 1464.402588,816.994995 1466.845581,814.308167 
	C1513.842285,762.621094 1556.341431,707.570312 1591.511353,647.079407 
	C1618.926514,599.926392 1641.860596,550.820862 1654.855957,497.569641 
	C1663.948853,460.310272 1668.048218,422.664062 1659.946777,384.680237 
	C1648.825073,332.536591 1618.949463,295.919647 1568.595947,276.932343 
	C1550.673096,270.174011 1531.931519,267.307251 1512.884766,266.025604 
	C1478.146362,263.688110 1444.482910,269.808502 1411.254395,278.987274 
	C1354.278198,294.725922 1301.585205,320.201172 1251.100220,350.477936 
	C1233.235596,361.191681 1236.496826,356.090607 1236.591553,375.891632 
	C1237.079834,477.870361 1237.896851,579.847656 1238.268555,681.826660 
	C1238.557617,761.145386 1238.241943,840.466125 1238.422241,919.785461 
	C1238.548706,975.440796 1239.241211,1031.094971 1239.357910,1086.750244 
	C1239.611206,1207.407715 1239.651001,1328.065674 1239.813965,1448.723389 
	C1239.819702,1452.897583 1240.210327,1457.071411 1240.409302,1461.005981 
	C1255.147583,1462.839600 1309.957642,1462.164795 1317.989746,1459.968994 
	C1317.989746,1456.298828 1317.994873,1452.361572 1317.989014,1448.424438 
	C1317.897949,1387.761108 1317.816772,1327.097656 1317.710693,1266.434326 
	C1317.533447,1165.106567 1317.417725,1063.778442 1317.000000,962.451660 
	C1316.968018,954.689514 1319.425415,949.844788 1325.486572,944.895447 
	C1349.227051,925.509521 1372.380493,905.404724 1395.757202,885.573425 
	C1398.198975,883.502136 1400.675659,881.472107 1403.765259,878.898804 
	C1440.299072,921.950256 1476.280762,964.351135 1513.192261,1007.826965 
M514.366699,1072.999878 
	C514.302917,1178.993408 514.287354,1284.987061 514.134766,1390.980469 
	C514.104065,1412.324829 521.273804,1430.596313 535.532715,1446.424805 
	C552.471130,1465.227905 573.829102,1468.438965 596.894165,1465.540161 
	C597.497253,1464.596191 597.713318,1464.343628 597.830322,1464.051392 
	C597.952271,1463.746582 598.003174,1463.406616 598.042053,1463.076782 
	C598.119995,1462.416748 598.175476,1461.753784 598.226318,1461.090942 
	C598.251709,1460.759155 598.253723,1460.424805 598.254333,1460.091675 
	C598.734375,1182.104492 599.213257,904.117188 599.692871,626.129944 
	C599.694580,625.130005 599.700623,624.130005 599.713928,623.130127 
	C599.722778,622.463745 599.741943,621.797363 599.768250,621.131470 
	C599.781372,620.798706 599.795654,620.462280 599.855835,620.136169 
	C599.915588,619.812256 599.995911,619.480835 600.137695,619.186707 
	C600.266907,618.918640 600.446472,618.630005 600.684448,618.471252 
	C600.950928,618.293518 601.307922,618.251465 602.125061,617.991455 
	C604.270569,620.679626 606.584595,623.478638 608.791931,626.359436 
	C640.618286,667.895569 672.422729,709.448364 704.258484,750.977234 
	C707.094849,754.677246 709.846558,758.498108 713.092773,761.817688 
	C723.766235,772.732422 736.625610,776.464050 751.473511,772.528381 
	C767.932922,768.165588 780.764832,759.302612 789.728882,744.255127 
	C825.034302,684.989563 860.766357,625.978088 896.349426,566.878052 
	C898.151489,563.885071 900.040344,560.944397 901.888794,557.979370 
	C903.801208,561.747681 904.096863,564.919556 904.138123,568.094727 
	C904.315735,581.759460 904.410400,595.425293 904.550171,609.090576 
	C906.182739,768.737244 908.040833,928.382080 909.380493,1088.031250 
	C910.409729,1210.687134 910.782166,1333.348633 911.478638,1456.007446 
	C911.498657,1459.534668 911.882141,1463.059814 912.154236,1467.541748 
	C939.912170,1467.423828 966.695923,1467.938354 994.287109,1467.381348 
	C994.287109,1462.799438 994.303467,1459.506226 994.284973,1456.213379 
	C993.166321,1256.893433 992.077148,1057.573120 990.912781,858.253479 
	C990.030823,707.263184 989.017334,556.273682 988.166565,405.283234 
	C988.072754,388.637390 980.804321,376.314697 966.446838,368.641388 
	C951.638062,360.726837 936.884277,362.208252 922.917969,371.458771 
	C914.652771,376.933197 908.984314,384.636658 903.945068,393.024658 
	C852.459412,478.724426 800.894226,564.376465 749.335632,650.032410 
	C746.973389,653.956909 744.462585,657.791931 741.664490,662.234558 
	C739.135620,659.470398 737.262390,657.617920 735.608521,655.586731 
	C693.098816,603.376526 650.628784,551.133972 608.099548,498.939697 
	C602.842529,492.487946 597.237488,486.321106 591.887390,479.943665 
	C579.489197,465.164703 563.135071,462.767151 545.543579,465.863586 
	C529.029785,468.770355 517.190552,482.347748 515.659790,499.042236 
	C515.143799,504.669647 515.227112,510.361694 515.218079,516.024475 
	C514.921326,701.016235 514.646667,886.007996 514.366699,1072.999878 
M2959.884277,1238.942505 
	C3038.136719,1126.263428 3116.388916,1013.584290 3195.177734,900.132874 
	C3198.698486,903.402710 3201.323242,905.847168 3203.955322,908.283936 
	C3223.762451,926.622620 3243.355225,945.202637 3263.517090,963.142822 
	C3269.237549,968.232910 3271.764648,973.189514 3271.742188,980.951599 
	C3271.437256,1086.279297 3271.462158,1191.607910 3271.411621,1296.936279 
	C3271.387207,1347.600586 3271.348389,1398.264771 3271.398193,1448.929077 
	C3271.403076,1454.110107 3271.972168,1459.290649 3272.303711,1464.881592 
	C3298.125244,1464.881592 3322.638428,1464.881592 3348.111816,1464.881592 
	C3348.549805,1459.141235 3349.295654,1453.901001 3349.300049,1448.660278 
	C3349.556885,1136.341675 3349.731201,824.023132 3350.099121,511.704773 
	C3350.106934,505.036987 3347.924316,500.520264 3343.218018,496.152191 
	C3323.137207,477.514771 3301.775146,460.532410 3278.988770,445.338898 
	C3277.199707,444.145874 3275.102295,443.414948 3271.523926,441.683136 
	C3271.523926,582.855225 3271.523926,722.556274 3271.523926,864.167358 
	C3267.873291,861.116699 3265.776123,859.614502 3263.974121,857.816650 
	C3254.771729,848.636414 3245.508057,839.511597 3236.514893,830.128418 
	C3170.026611,760.757324 3111.569824,685.354614 3065.264648,600.919495 
	C3042.284668,559.016602 3022.871338,515.578796 3011.281250,469.009705 
	C3004.570557,442.045044 3000.471436,414.830811 3003.911621,386.861603 
	C3007.941650,354.095886 3024.658203,333.362823 3053.742920,326.711060 
	C3060.839355,325.088043 3068.216064,324.332428 3075.503418,323.967804 
	C3098.060547,322.839355 3120.218750,326.269073 3141.479248,333.295471 
	C3167.061035,341.749969 3192.097168,351.855774 3217.381348,361.213593 
	C3219.996826,362.181549 3222.695557,362.925049 3226.051025,363.994385 
	C3226.563477,337.159607 3226.979980,311.525421 3227.606689,285.896423 
	C3227.727051,280.983551 3224.414307,279.678101 3220.979736,278.429596 
	C3203.770996,272.173553 3186.731445,265.344727 3169.242920,259.988525 
	C3131.326416,248.375916 3092.714600,242.572372 3052.880859,247.604248 
	C2989.524658,255.607483 2943.639893,296.981812 2929.745117,359.264526 
	C2920.912109,398.858093 2924.449951,438.136383 2933.063721,477.207123 
	C2943.385498,524.028076 2961.083984,568.187378 2982.446289,610.933411 
	C3022.621582,691.325867 3074.323975,763.916443 3132.649902,831.991943 
	C3135.224854,834.997009 3137.766602,838.030640 3140.585449,841.360352 
	C3138.568115,844.508972 3136.882568,847.331360 3135.014404,850.027283 
	C3084.902832,922.333557 3034.793213,994.641357 2984.639160,1066.918213 
	C2941.322266,1129.342651 2897.938721,1191.720703 2854.607666,1254.135254 
	C2809.184326,1319.563110 2763.772461,1384.998901 2718.420898,1450.476562 
	C2715.706299,1454.395752 2713.570312,1458.715942 2710.180176,1464.541992 
	C2715.640625,1464.541992 2718.899170,1464.538330 2722.157715,1464.542603 
	C2745.823242,1464.573486 2769.495117,1464.308594 2793.150635,1464.811401 
	C2800.668213,1464.971313 2805.150635,1462.654541 2809.475586,1456.366333 
	C2859.146729,1384.152954 2909.147217,1312.166016 2959.884277,1238.942505 
M3445.400879,526.679565 
	C3450.093018,530.348816 3449.179688,535.565613 3449.162842,540.499695 
	C3448.993652,589.821899 3448.720215,639.143982 3448.630859,688.466248 
	C3448.166260,945.075867 3447.744629,1201.685425 3447.345215,1458.295044 
	C3447.341797,1460.524536 3447.852539,1462.754639 3448.210449,1465.703247 
	C3453.951172,1465.703247 3459.239502,1465.497192 3464.507568,1465.736816 
	C3498.613525,1467.287598 3526.102051,1439.754639 3526.032471,1404.511963 
	C3525.562012,1165.566284 3526.304688,926.618225 3526.662109,687.670959 
	C3526.693604,666.675598 3526.711182,645.679749 3526.908691,624.685730 
	C3526.936768,621.704163 3525.430908,617.972778 3530.127686,615.425659 
	C3531.325439,616.943115 3532.511719,618.548889 3533.802734,620.065430 
	C3575.364746,668.893066 3613.038818,720.491028 3645.130371,776.079468 
	C3647.157715,779.591492 3649.637451,782.842224 3651.906982,786.214478 
	C3653.813965,782.099670 3653.855957,778.860840 3653.807617,775.623413 
	C3653.205078,735.304810 3652.413574,694.987610 3652.129883,654.666870 
	C3652.075195,646.884949 3649.849121,640.769470 3645.234619,634.603638 
	C3587.288086,557.176575 3521.618408,487.019348 3448.058105,424.243652 
	C3396.715332,380.428314 3342.150635,341.205811 3282.975586,308.569885 
	C3279.908691,306.878479 3276.691162,305.459778 3272.666504,303.483124 
	C3272.454834,307.518738 3272.213623,310.097137 3272.201660,312.676636 
	C3272.097412,335.004730 3272.289795,357.338654 3271.799561,379.657776 
	C3271.656494,386.172455 3273.847900,389.583282 3279.287354,393.180054 
	C3300.389160,407.132965 3322.067139,420.533081 3341.545654,436.552399 
	C3376.527832,465.321442 3410.077148,495.832092 3445.400879,526.679565 
M1154.166626,799.000000 
	C1154.027954,752.016663 1153.845459,705.033447 1153.763550,658.050049 
	C1153.688110,614.732178 1153.860352,571.413269 1153.569214,528.097168 
	C1153.520264,520.840149 1154.971436,515.545776 1161.410767,511.278839 
	C1169.998291,505.588379 1177.683105,498.547241 1186.184692,492.711273 
	C1191.707153,488.920380 1193.898804,484.621704 1193.705688,477.823975 
	C1192.939331,450.847473 1192.751831,423.854614 1192.308716,396.868530 
	C1192.277954,394.993347 1191.910645,393.123688 1191.574951,390.142700 
	C1189.076660,391.544159 1187.345215,392.320801 1185.825195,393.396271 
	C1132.705933,430.980347 1082.033936,471.549713 1035.124390,516.731873 
	C1031.468140,520.253418 1029.933228,523.897034 1029.983276,528.995117 
	C1030.300781,561.314880 1030.313232,593.637512 1030.497803,625.958801 
	C1030.509644,628.032837 1031.120483,630.103455 1031.674561,633.558533 
	C1039.540771,625.746399 1046.241821,618.861633 1053.199097,612.246338 
	C1060.258301,605.533997 1066.582397,597.943909 1076.422485,591.058105 
	C1076.422485,613.629883 1076.412842,634.168152 1076.425049,654.706482 
	C1076.437622,675.699036 1076.470215,696.691650 1076.496948,717.684204 
	C1076.523315,738.343567 1076.553711,759.002930 1076.581787,779.662292 
	C1076.609863,800.321655 1076.634277,820.981018 1076.665527,841.640381 
	C1076.697388,862.632935 1076.732910,883.625549 1076.772095,904.618103 
	C1076.810669,925.277405 1076.854004,945.936768 1076.897827,966.596069 
	C1076.941650,987.255432 1076.986938,1007.914734 1077.034912,1028.574097 
	C1077.083496,1049.566650 1077.143433,1070.559082 1077.185181,1091.551636 
	C1077.226074,1112.210938 1077.257202,1132.870361 1077.280151,1153.529663 
	C1077.303467,1174.522217 1077.310669,1195.514893 1077.326660,1216.507446 
	C1077.342529,1237.166870 1077.363159,1257.826172 1077.376587,1278.485596 
	C1077.390015,1299.145020 1077.396729,1319.804321 1077.406982,1340.463745 
	C1077.417236,1361.456299 1077.292236,1382.450195 1077.477661,1403.441162 
	C1077.658569,1423.929199 1076.699707,1444.456787 1078.189941,1465.299072 
	C1104.330688,1465.299072 1129.435181,1465.299072 1155.898682,1465.299072 
	C1155.321899,1243.351685 1154.747192,1022.175842 1154.166626,799.000000 
M2519.916748,369.000000 
	C2519.798096,276.490448 2519.679443,183.980911 2519.561279,91.747879 
	C2499.205322,87.414558 2451.427734,87.004868 2441.749268,90.647301 
	C2441.749268,154.748505 2441.763672,218.676376 2441.746582,282.604248 
	C2441.673340,555.138245 2441.590576,827.672180 2441.533447,1100.206177 
	C2441.533447,1100.468262 2441.823486,1100.781250 2442.056152,1100.977783 
	C2442.278320,1101.165649 2442.602539,1101.232544 2443.325195,1101.542847 
	C2444.229980,1097.961548 2445.161377,1094.454346 2446.001221,1090.925415 
	C2469.364258,992.772278 2492.803955,894.637085 2515.933350,796.428894 
	C2518.122803,787.131714 2519.322021,777.375977 2519.347900,767.828735 
	C2519.704834,635.552917 2519.776367,503.276337 2519.916748,369.000000 
M3012.465332,1247.379517 
	C3003.573242,1260.254761 2994.815918,1273.226807 2985.711670,1285.950195 
	C2982.747803,1290.091797 2982.105469,1293.866455 2983.212158,1298.908691 
	C2993.983887,1347.984253 3004.453613,1397.126099 3015.038330,1446.242798 
	C3016.349121,1452.323975 3017.832520,1458.368164 3019.146484,1464.043945 
	C3034.365234,1466.141357 3090.220459,1465.637085 3098.512939,1463.132690 
	C3080.093262,1377.663940 3061.652588,1292.098145 3043.211670,1206.532471 
	C3042.463135,1206.432739 3041.714355,1206.332886 3040.965820,1206.233154 
	C3031.745605,1219.560669 3022.525146,1232.888184 3012.465332,1247.379517 
z"/>
<path fill="#46AA6E" opacity="1.000000" stroke="none" 
	d="
M1512.727295,1007.289551 
	C1476.280762,964.351135 1440.299072,921.950256 1403.765259,878.898804 
	C1400.675659,881.472107 1398.198975,883.502136 1395.757202,885.573425 
	C1372.380493,905.404724 1349.227051,925.509521 1325.486572,944.895447 
	C1319.425415,949.844788 1316.968018,954.689514 1317.000000,962.451660 
	C1317.417725,1063.778442 1317.533447,1165.106567 1317.710693,1266.434326 
	C1317.816772,1327.097656 1317.897949,1387.761108 1317.989014,1448.424438 
	C1317.994873,1452.361572 1317.989746,1456.298828 1317.989746,1459.968994 
	C1309.957642,1462.164795 1255.147583,1462.839600 1240.409302,1461.005981 
	C1240.210327,1457.071411 1239.819702,1452.897583 1239.813965,1448.723389 
	C1239.651001,1328.065674 1239.611206,1207.407715 1239.357910,1086.750244 
	C1239.241211,1031.094971 1238.548706,975.440796 1238.422241,919.785461 
	C1238.241943,840.466125 1238.557617,761.145386 1238.268555,681.826660 
	C1237.896851,579.847656 1237.079834,477.870361 1236.591553,375.891632 
	C1236.496826,356.090607 1233.235596,361.191681 1251.100220,350.477936 
	C1301.585205,320.201172 1354.278198,294.725922 1411.254395,278.987274 
	C1444.482910,269.808502 1478.146362,263.688110 1512.884766,266.025604 
	C1531.931519,267.307251 1550.673096,270.174011 1568.595947,276.932343 
	C1618.949463,295.919647 1648.825073,332.536591 1659.946777,384.680237 
	C1668.048218,422.664062 1663.948853,460.310272 1654.855957,497.569641 
	C1641.860596,550.820862 1618.926514,599.926392 1591.511353,647.079407 
	C1556.341431,707.570312 1513.842285,762.621094 1466.845581,814.308167 
	C1464.402588,816.994995 1462.025269,819.741516 1459.113525,823.029114 
	C1461.604004,826.129150 1463.782349,828.978516 1466.101685,831.707825 
	C1529.126099,905.866699 1592.163696,980.014465 1655.201904,1054.161621 
	C1706.147461,1114.085083 1757.096924,1174.005249 1808.044800,1233.926880 
	C1808.476440,1234.434814 1808.909180,1234.941895 1809.337524,1235.452759 
	C1821.566040,1250.036865 1821.209473,1250.058838 1822.395264,1269.307373 
	C1824.608276,1305.232300 1829.332031,1340.848999 1835.279541,1376.367920 
	C1841.081543,1411.019653 1850.102783,1444.695068 1862.117554,1477.622192 
	C1864.947021,1485.376221 1868.563843,1492.842896 1872.840088,1502.827637 
	C1875.958862,1495.975342 1878.249878,1491.419800 1880.142578,1486.704346 
	C1891.234497,1459.068726 1898.344849,1430.314941 1903.906250,1401.140015 
	C1913.211060,1352.326294 1918.966431,1303.016357 1924.000122,1253.629639 
	C1938.251953,1113.798828 1940.559814,973.549988 1937.266602,833.180115 
	C1935.179321,744.210205 1929.880005,655.395142 1920.592163,566.844421 
	C1913.497681,499.204407 1904.535645,431.860016 1889.941162,365.375183 
	C1883.078247,334.110321 1875.120483,303.138336 1862.738892,273.500610 
	C1860.862549,269.009033 1858.515381,264.714111 1855.405518,258.308746 
	C1852.669434,264.504730 1850.673950,268.568237 1849.049438,272.774994 
	C1837.356567,303.051941 1830.132324,334.545837 1824.089478,366.319153 
	C1813.433472,422.348907 1806.757080,478.910767 1801.793213,535.703186 
	C1791.392700,654.699219 1788.637207,773.943054 1790.601685,893.306763 
	C1791.863159,969.953552 1795.202515,1046.531494 1801.617065,1122.947266 
	C1802.589722,1134.535278 1803.385010,1146.137939 1804.401123,1159.568848 
	C1801.523560,1157.317871 1799.685791,1156.301514 1798.398071,1154.810425 
	C1773.347168,1125.799072 1748.420654,1096.679932 1723.291748,1067.736450 
	C1719.733032,1063.637695 1718.546997,1059.190918 1718.344116,1054.046753 
	C1716.794678,1014.753967 1714.583496,975.476990 1713.719238,936.170044 
	C1712.627808,886.527100 1712.028687,836.857483 1712.269165,787.204529 
	C1712.675903,703.194946 1716.375000,619.305115 1723.531372,535.577698 
	C1729.181885,469.467712 1736.872925,403.637695 1750.064209,338.557068 
	C1756.821533,305.218628 1764.950317,272.230743 1777.774170,240.596405 
	C1784.308594,224.476624 1791.958252,208.942856 1803.194580,195.488205 
	C1814.163696,182.353592 1827.295532,172.564560 1844.667969,169.593674 
	C1864.425415,166.214935 1881.600342,171.923538 1896.551514,184.701447 
	C1910.224976,196.387329 1919.654785,211.306885 1927.512939,227.270737 
	C1940.080078,252.800598 1948.634033,279.780121 1956.011841,307.164062 
	C1970.687134,361.634674 1980.265503,417.105835 1987.946533,472.912598 
	C2000.905518,567.067017 2008.352295,661.701111 2012.607544,756.634644 
	C2017.670654,869.589600 2017.793579,982.542847 2013.336426,1095.492432 
	C2010.642456,1163.761719 2005.864502,1231.913574 1997.797852,1299.787476 
	C1989.331055,1371.027222 1977.586060,1441.601196 1954.216553,1509.761841 
	C1947.800049,1528.476562 1939.626465,1546.274414 1927.466431,1562.005249 
	C1924.219360,1566.205811 1920.625488,1570.208496 1916.769409,1573.856812 
	C1892.361694,1596.949951 1859.292969,1598.073853 1833.266113,1576.766479 
	C1819.295654,1565.329468 1809.833008,1550.463989 1801.861450,1534.568115 
	C1788.652954,1508.229492 1779.695679,1480.300537 1772.063110,1451.972656 
	C1757.217773,1396.873657 1747.673706,1340.724976 1740.128296,1284.226807 
	C1739.205444,1277.316895 1736.928345,1271.718262 1732.381348,1266.381470 
	C1678.126343,1202.701904 1624.029297,1138.887817 1569.929199,1075.076538 
	C1550.963013,1052.705688 1532.101562,1030.246094 1512.727295,1007.289551 
M1564.834839,364.157440 
	C1557.458862,357.109161 1548.778687,352.236633 1539.062256,349.359619 
	C1516.915771,342.802032 1494.468140,341.304932 1471.996704,347.240234 
	C1420.252930,360.907104 1370.837646,380.652740 1323.117310,404.806641 
	C1317.661255,407.568298 1315.299194,410.798462 1315.511841,417.048676 
	C1316.101074,434.361725 1316.253296,451.695068 1316.282471,469.020874 
	C1316.380615,527.331909 1316.312378,585.643188 1316.379517,643.954285 
	C1316.454346,708.943481 1316.599243,773.932617 1316.750610,838.921692 
	C1316.758057,842.131287 1317.118164,845.340149 1317.388550,849.771912 
	C1320.300781,847.772400 1322.256836,846.707703 1323.885010,845.271240 
	C1399.828613,778.271606 1466.291260,703.155701 1519.031860,616.396851 
	C1542.474365,577.833801 1562.289062,537.525696 1575.081177,494.064056 
	C1582.168945,469.983154 1587.064941,445.495209 1585.903687,420.227051 
	C1584.967896,399.864380 1580.690186,380.544159 1564.834839,364.157440 
z"/>
<path fill="#46A96E" opacity="1.000000" stroke="none" 
	d="
M514.367737,1071.999756 
	C514.646667,886.007996 514.921326,701.016235 515.218079,516.024475 
	C515.227112,510.361694 515.143799,504.669647 515.659790,499.042236 
	C517.190552,482.347748 529.029785,468.770355 545.543579,465.863586 
	C563.135071,462.767151 579.489197,465.164703 591.887390,479.943665 
	C597.237488,486.321106 602.842529,492.487946 608.099548,498.939697 
	C650.628784,551.133972 693.098816,603.376526 735.608521,655.586731 
	C737.262390,657.617920 739.135620,659.470398 741.664490,662.234558 
	C744.462585,657.791931 746.973389,653.956909 749.335632,650.032410 
	C800.894226,564.376465 852.459412,478.724426 903.945068,393.024658 
	C908.984314,384.636658 914.652771,376.933197 922.917969,371.458771 
	C936.884277,362.208252 951.638062,360.726837 966.446838,368.641388 
	C980.804321,376.314697 988.072754,388.637390 988.166565,405.283234 
	C989.017334,556.273682 990.030823,707.263184 990.912781,858.253479 
	C992.077148,1057.573120 993.166321,1256.893433 994.284973,1456.213379 
	C994.303467,1459.506226 994.287109,1462.799438 994.287109,1467.381348 
	C966.695923,1467.938354 939.912170,1467.423828 912.154236,1467.541748 
	C911.882141,1463.059814 911.498657,1459.534668 911.478638,1456.007446 
	C910.782166,1333.348633 910.409729,1210.687134 909.380493,1088.031250 
	C908.040833,928.382080 906.182739,768.737244 904.550171,609.090576 
	C904.410400,595.425293 904.315735,581.759460 904.138123,568.094727 
	C904.096863,564.919556 903.801208,561.747681 901.888794,557.979370 
	C900.040344,560.944397 898.151489,563.885071 896.349426,566.878052 
	C860.766357,625.978088 825.034302,684.989563 789.728882,744.255127 
	C780.764832,759.302612 767.932922,768.165588 751.473511,772.528381 
	C736.625610,776.464050 723.766235,772.732422 713.092773,761.817688 
	C709.846558,758.498108 707.094849,754.677246 704.258484,750.977234 
	C672.422729,709.448364 640.618286,667.895569 608.791931,626.359436 
	C606.584595,623.478638 604.270569,620.679626 602.125061,617.991455 
	C601.307922,618.251465 600.950928,618.293518 600.684448,618.471252 
	C600.446472,618.630005 600.266907,618.918640 600.137695,619.186707 
	C599.995911,619.480835 599.915588,619.812256 599.855835,620.136169 
	C599.795654,620.462280 599.781372,620.798706 599.768250,621.131470 
	C599.741943,621.797363 599.722778,622.463745 599.713928,623.130127 
	C599.700623,624.130005 599.694580,625.130005 599.692871,626.129944 
	C599.213257,904.117188 598.734375,1182.104492 598.254333,1460.091675 
	C598.253723,1460.424805 598.251709,1460.759155 598.226318,1461.090942 
	C598.175476,1461.753784 598.119995,1462.416748 598.042053,1463.076782 
	C598.003174,1463.406616 597.952271,1463.746582 597.830322,1464.051392 
	C597.713318,1464.343628 597.497253,1464.596191 596.894165,1465.540161 
	C573.829102,1468.438965 552.471130,1465.227905 535.532715,1446.424805 
	C521.273804,1430.596313 514.104065,1412.324829 514.134766,1390.980469 
	C514.287354,1284.987061 514.302917,1178.993408 514.367737,1071.999756 
z"/>
<path fill="#8C6BAA" opacity="1.000000" stroke="none" 
	d="
M2959.472168,1239.530640 
	C2909.147217,1312.166016 2859.146729,1384.152954 2809.475586,1456.366333 
	C2805.150635,1462.654541 2800.668213,1464.971313 2793.150635,1464.811401 
	C2769.495117,1464.308594 2745.823242,1464.573486 2722.157715,1464.542603 
	C2718.899170,1464.538330 2715.640625,1464.541992 2710.180176,1464.541992 
	C2713.570312,1458.715942 2715.706299,1454.395752 2718.420898,1450.476562 
	C2763.772461,1384.998901 2809.184326,1319.563110 2854.607666,1254.135254 
	C2897.938721,1191.720703 2941.322266,1129.342651 2984.639160,1066.918213 
	C3034.793213,994.641357 3084.902832,922.333557 3135.014404,850.027283 
	C3136.882568,847.331360 3138.568115,844.508972 3140.585449,841.360352 
	C3137.766602,838.030640 3135.224854,834.997009 3132.649902,831.991943 
	C3074.323975,763.916443 3022.621582,691.325867 2982.446289,610.933411 
	C2961.083984,568.187378 2943.385498,524.028076 2933.063721,477.207123 
	C2924.449951,438.136383 2920.912109,398.858093 2929.745117,359.264526 
	C2943.639893,296.981812 2989.524658,255.607483 3052.880859,247.604248 
	C3092.714600,242.572372 3131.326416,248.375916 3169.242920,259.988525 
	C3186.731445,265.344727 3203.770996,272.173553 3220.979736,278.429596 
	C3224.414307,279.678101 3227.727051,280.983551 3227.606689,285.896423 
	C3226.979980,311.525421 3226.563477,337.159607 3226.051025,363.994385 
	C3222.695557,362.925049 3219.996826,362.181549 3217.381348,361.213593 
	C3192.097168,351.855774 3167.061035,341.749969 3141.479248,333.295471 
	C3120.218750,326.269073 3098.060547,322.839355 3075.503418,323.967804 
	C3068.216064,324.332428 3060.839355,325.088043 3053.742920,326.711060 
	C3024.658203,333.362823 3007.941650,354.095886 3003.911621,386.861603 
	C3000.471436,414.830811 3004.570557,442.045044 3011.281250,469.009705 
	C3022.871338,515.578796 3042.284668,559.016602 3065.264648,600.919495 
	C3111.569824,685.354614 3170.026611,760.757324 3236.514893,830.128418 
	C3245.508057,839.511597 3254.771729,848.636414 3263.974121,857.816650 
	C3265.776123,859.614502 3267.873291,861.116699 3271.523926,864.167358 
	C3271.523926,722.556274 3271.523926,582.855225 3271.523926,441.683136 
	C3275.102295,443.414948 3277.199707,444.145874 3278.988770,445.338898 
	C3301.775146,460.532410 3323.137207,477.514771 3343.218018,496.152191 
	C3347.924316,500.520264 3350.106934,505.036987 3350.099121,511.704773 
	C3349.731201,824.023132 3349.556885,1136.341675 3349.300049,1448.660278 
	C3349.295654,1453.901001 3348.549805,1459.141235 3348.111816,1464.881592 
	C3322.638428,1464.881592 3298.125244,1464.881592 3272.303711,1464.881592 
	C3271.972168,1459.290649 3271.403076,1454.110107 3271.398193,1448.929077 
	C3271.348389,1398.264771 3271.387207,1347.600586 3271.411621,1296.936279 
	C3271.462158,1191.607910 3271.437256,1086.279297 3271.742188,980.951599 
	C3271.764648,973.189514 3269.237549,968.232910 3263.517090,963.142822 
	C3243.355225,945.202637 3223.762451,926.622620 3203.955322,908.283936 
	C3201.323242,905.847168 3198.698486,903.402710 3195.177734,900.132874 
	C3116.388916,1013.584290 3038.136719,1126.263428 2959.472168,1239.530640 
z"/>
<path fill="#8C6BAA" opacity="1.000000" stroke="none" 
	d="
M2432.076660,1326.909058 
	C2438.037598,1304.387695 2444.367920,1281.956665 2449.900146,1259.330444 
	C2487.317627,1106.298828 2524.531494,953.217651 2561.883301,800.169983 
	C2582.811523,714.416382 2604.511719,628.845398 2624.695557,542.917603 
	C2643.279541,463.800842 2660.306396,384.318237 2678.003418,304.993286 
	C2683.087158,282.204315 2688.658203,259.489197 2698.355225,238.200180 
	C2703.560059,226.773178 2710.342285,215.959518 2717.365234,205.509262 
	C2720.993896,200.109894 2726.282959,195.554413 2731.543945,191.571915 
	C2753.254150,175.137772 2780.726807,176.125076 2801.516113,193.702057 
	C2811.901611,202.482727 2819.162354,213.612335 2825.033691,225.695526 
	C2837.210938,250.755157 2844.342773,277.470764 2850.100586,304.550385 
	C2873.234863,413.361572 2896.025391,522.246033 2919.237305,631.040649 
	C2942.868164,741.799072 2966.826660,852.487610 2990.735352,963.186523 
	C2991.687012,967.591858 2992.133789,971.277405 2989.252441,975.410889 
	C2971.529785,1000.833679 2954.096924,1026.458496 2936.525391,1051.986938 
	C2935.456055,1053.540527 2934.024658,1054.844849 2931.355469,1057.847168 
	C2910.673584,962.024597 2890.343506,867.832031 2870.013428,773.639526 
	C2869.198486,773.160645 2868.383545,772.681763 2867.568848,772.202881 
	C2865.911377,774.641602 2864.475586,777.271118 2862.564697,779.491577 
	C2764.291992,893.688599 2665.995361,1007.864746 2567.615723,1121.969604 
	C2563.367432,1126.897095 2560.495117,1132.122559 2558.950684,1138.495361 
	C2546.712646,1188.996338 2534.190186,1239.428345 2521.914551,1289.920166 
	C2519.398438,1300.269043 2517.467285,1310.764160 2515.412598,1321.220459 
	C2508.111816,1358.375732 2487.981934,1388.015015 2461.105957,1413.607910 
	C2446.280029,1427.726074 2429.210205,1438.748291 2411.132324,1448.230835 
	C2409.416504,1449.130859 2407.391846,1449.442627 2404.637695,1449.211792 
	C2404.630859,1443.827026 2405.283447,1439.205322 2406.396729,1434.697388 
	C2413.983887,1403.981689 2421.717773,1373.301880 2429.271729,1342.578125 
	C2430.535889,1337.436035 2431.157715,1332.135986 2432.076660,1326.909058 
M2616.711182,903.660400 
	C2612.825928,921.503784 2607.379639,939.016724 2604.919434,957.306091 
	C2607.768555,955.510010 2609.864502,953.459167 2611.771484,951.245361 
	C2688.721924,861.902588 2765.617188,772.512390 2842.686279,683.272217 
	C2847.265137,677.970703 2848.545898,673.216919 2847.022217,666.216797 
	C2824.366211,562.136658 2802.047607,457.982971 2779.590332,353.859344 
	C2778.189209,347.362335 2776.382812,340.947601 2774.608887,334.537750 
	C2773.464111,330.402802 2771.124023,327.160370 2766.375488,327.161530 
	C2761.815186,327.162659 2758.999756,330.039978 2757.510498,334.053040 
	C2756.125732,337.785278 2754.993652,341.632568 2754.040283,345.500610 
	C2738.587891,408.188599 2723.181641,470.887909 2707.765625,533.584839 
	C2700.771729,562.028625 2693.778076,590.472473 2686.785889,618.916748 
	C2663.584229,713.302551 2640.384033,807.688477 2616.711182,903.660400 
z"/>
<path fill="#46A96E" opacity="1.000000" stroke="none" 
	d="
M2431.525391,1327.395508 
	C2431.157715,1332.135986 2430.535889,1337.436035 2429.271729,1342.578125 
	C2421.717773,1373.301880 2413.983887,1403.981689 2406.396729,1434.697388 
	C2405.283447,1439.205322 2404.630859,1443.827026 2403.884766,1449.228516 
	C2404.004639,1450.061157 2403.984863,1449.928467 2403.726074,1450.179932 
	C2403.023926,1450.773804 2402.671143,1451.192383 2402.408447,1451.686890 
	C2381.356934,1462.369873 2358.806641,1468.206909 2335.589844,1471.193115 
	C2266.398682,1480.092529 2203.165527,1464.620117 2146.775146,1423.218384 
	C2120.047363,1403.594971 2099.092285,1378.815063 2083.871582,1349.232300 
	C2079.318848,1340.383911 2077.081055,1331.303955 2077.985840,1321.321533 
	C2078.555664,1315.032104 2078.462891,1308.673096 2078.480957,1302.344727 
	C2079.113525,1079.732666 2079.430420,857.119202 2080.463867,634.509094 
	C2080.960693,527.540649 2083.158447,420.580872 2083.890137,313.612427 
	C2084.254883,260.305603 2083.050537,206.988068 2082.565186,153.675308 
	C2082.541016,151.009964 2082.081055,148.196625 2082.779541,145.721848 
	C2083.405273,143.503799 2084.947021,140.437271 2086.774414,139.833450 
	C2109.507568,132.321838 2132.566406,126.067047 2157.905762,122.805130 
	C2158.418701,129.049698 2159.301025,134.539612 2159.251465,140.021088 
	C2158.853027,184.002060 2158.197266,227.980637 2157.776367,271.961426 
	C2156.969238,356.267273 2156.014893,440.572754 2155.579834,524.880737 
	C2155.003662,636.518066 2154.612305,748.157837 2154.675781,859.796265 
	C2154.698730,900.109253 2156.279785,940.421021 2157.115234,980.734070 
	C2157.315430,990.395020 2157.511230,1000.059082 2157.484375,1009.721130 
	C2157.206787,1109.363403 2156.982422,1209.006104 2156.395020,1308.646606 
	C2156.344238,1317.231445 2158.732178,1324.069824 2163.698730,1330.723267 
	C2175.214844,1346.151978 2188.991699,1359.131592 2205.482178,1368.949463 
	C2253.443604,1397.504639 2304.204102,1403.632446 2357.283447,1386.051880 
	C2388.699219,1375.646362 2413.851318,1356.696533 2431.525391,1327.395508 
z"/>
<path fill="#8C6BAA" opacity="1.000000" stroke="none" 
	d="
M3444.812988,526.147217 
	C3410.077148,495.832092 3376.527832,465.321442 3341.545654,436.552399 
	C3322.067139,420.533081 3300.389160,407.132965 3279.287354,393.180054 
	C3273.847900,389.583282 3271.656494,386.172455 3271.799561,379.657776 
	C3272.289795,357.338654 3272.097412,335.004730 3272.201660,312.676636 
	C3272.213623,310.097137 3272.454834,307.518738 3272.666504,303.483124 
	C3276.691162,305.459778 3279.908691,306.878479 3282.975586,308.569885 
	C3342.150635,341.205811 3396.715332,380.428314 3448.058105,424.243652 
	C3521.618408,487.019348 3587.288086,557.176575 3645.234619,634.603638 
	C3649.849121,640.769470 3652.075195,646.884949 3652.129883,654.666870 
	C3652.413574,694.987610 3653.205078,735.304810 3653.807617,775.623413 
	C3653.855957,778.860840 3653.813965,782.099670 3651.906982,786.214478 
	C3649.637451,782.842224 3647.157715,779.591492 3645.130371,776.079468 
	C3613.038818,720.491028 3575.364746,668.893066 3533.802734,620.065430 
	C3532.511719,618.548889 3531.325439,616.943115 3530.127686,615.425659 
	C3525.430908,617.972778 3526.936768,621.704163 3526.908691,624.685730 
	C3526.711182,645.679749 3526.693604,666.675598 3526.662109,687.670959 
	C3526.304688,926.618225 3525.562012,1165.566284 3526.032471,1404.511963 
	C3526.102051,1439.754639 3498.613525,1467.287598 3464.507568,1465.736816 
	C3459.239502,1465.497192 3453.951172,1465.703247 3448.210449,1465.703247 
	C3447.852539,1462.754639 3447.341797,1460.524536 3447.345215,1458.295044 
	C3447.744629,1201.685425 3448.166260,945.075867 3448.630859,688.466248 
	C3448.720215,639.143982 3448.993652,589.821899 3449.162842,540.499695 
	C3449.179688,535.565613 3450.093018,530.348816 3444.812988,526.147217 
z"/>
<path fill="#46A96E" opacity="1.000000" stroke="none" 
	d="
M1154.169434,800.000000 
	C1154.747192,1022.175842 1155.321899,1243.351685 1155.898682,1465.299072 
	C1129.435181,1465.299072 1104.330688,1465.299072 1078.189941,1465.299072 
	C1076.699707,1444.456787 1077.658569,1423.929199 1077.477661,1403.441162 
	C1077.292236,1382.450195 1077.417236,1361.456299 1077.406982,1340.463745 
	C1077.396729,1319.804321 1077.390015,1299.145020 1077.376587,1278.485596 
	C1077.363159,1257.826172 1077.342529,1237.166870 1077.326660,1216.507446 
	C1077.310669,1195.514893 1077.303467,1174.522217 1077.280151,1153.529663 
	C1077.257202,1132.870361 1077.226074,1112.210938 1077.185181,1091.551636 
	C1077.143433,1070.559082 1077.083496,1049.566650 1077.034912,1028.574097 
	C1076.986938,1007.914734 1076.941650,987.255432 1076.897827,966.596069 
	C1076.854004,945.936768 1076.810669,925.277405 1076.772095,904.618103 
	C1076.732910,883.625549 1076.697388,862.632935 1076.665527,841.640381 
	C1076.634277,820.981018 1076.609863,800.321655 1076.581787,779.662292 
	C1076.553711,759.002930 1076.523315,738.343567 1076.496948,717.684204 
	C1076.470215,696.691650 1076.437622,675.699036 1076.425049,654.706482 
	C1076.412842,634.168152 1076.422485,613.629883 1076.422485,591.058105 
	C1066.582397,597.943909 1060.258301,605.533997 1053.199097,612.246338 
	C1046.241821,618.861633 1039.540771,625.746399 1031.674561,633.558533 
	C1031.120483,630.103455 1030.509644,628.032837 1030.497803,625.958801 
	C1030.313232,593.637512 1030.300781,561.314880 1029.983276,528.995117 
	C1029.933228,523.897034 1031.468140,520.253418 1035.124390,516.731873 
	C1082.033936,471.549713 1132.705933,430.980347 1185.825195,393.396271 
	C1187.345215,392.320801 1189.076660,391.544159 1191.574951,390.142700 
	C1191.910645,393.123688 1192.277954,394.993347 1192.308716,396.868530 
	C1192.751831,423.854614 1192.939331,450.847473 1193.705688,477.823975 
	C1193.898804,484.621704 1191.707153,488.920380 1186.184692,492.711273 
	C1177.683105,498.547241 1169.998291,505.588379 1161.410767,511.278839 
	C1154.971436,515.545776 1153.520264,520.840149 1153.569214,528.097168 
	C1153.860352,571.413269 1153.688110,614.732178 1153.763550,658.050049 
	C1153.845459,705.033447 1154.027954,752.016663 1154.169434,800.000000 
z"/>
<path fill="#46A96E" opacity="1.000000" stroke="none" 
	d="
M2519.917236,370.000000 
	C2519.776367,503.276337 2519.704834,635.552917 2519.347900,767.828735 
	C2519.322021,777.375977 2518.122803,787.131714 2515.933350,796.428894 
	C2492.803955,894.637085 2469.364258,992.772278 2446.001221,1090.925415 
	C2445.161377,1094.454346 2444.229980,1097.961548 2443.325195,1101.542847 
	C2442.602539,1101.232544 2442.278320,1101.165649 2442.056152,1100.977783 
	C2441.823486,1100.781250 2441.533447,1100.468262 2441.533447,1100.206177 
	C2441.590576,827.672180 2441.673340,555.138245 2441.746582,282.604248 
	C2441.763672,218.676376 2441.749268,154.748505 2441.749268,90.647301 
	C2451.427734,87.004868 2499.205322,87.414558 2519.561279,91.747879 
	C2519.679443,183.980911 2519.798096,276.490448 2519.917236,370.000000 
z"/>
<path fill="#8B6AA8" opacity="1.000000" stroke="none" 
	d="
M3012.885254,1246.797607 
	C3022.525146,1232.888184 3031.745605,1219.560669 3040.965820,1206.233154 
	C3041.714355,1206.332886 3042.463135,1206.432739 3043.211670,1206.532471 
	C3061.652588,1292.098145 3080.093262,1377.663940 3098.512939,1463.132690 
	C3090.220459,1465.637085 3034.365234,1466.141357 3019.146484,1464.043945 
	C3017.832520,1458.368164 3016.349121,1452.323975 3015.038330,1446.242798 
	C3004.453613,1397.126099 2993.983887,1347.984253 2983.212158,1298.908691 
	C2982.105469,1293.866455 2982.747803,1290.091797 2985.711670,1285.950195 
	C2994.815918,1273.226807 3003.573242,1260.254761 3012.885254,1246.797607 
z"/>
<path fill="#8C6BAA" opacity="1.000000" stroke="none" 
	d="
M2402.834473,1451.567627 
	C2402.671143,1451.192383 2403.023926,1450.773804 2403.792969,1450.176514 
	C2403.997314,1450.523315 2403.711426,1451.032104 2402.834473,1451.567627 
z"/>
<path fill="#000101" opacity="1.000000" stroke="none" 
	d="
M1565.343994,364.658752 
	C1580.690186,380.544159 1584.967896,399.864380 1585.903687,420.227051 
	C1587.064941,445.495209 1582.168945,469.983154 1575.081177,494.064056 
	C1562.289062,537.525696 1542.474365,577.833801 1519.031860,616.396851 
	C1466.291260,703.155701 1399.828613,778.271606 1323.885010,845.271240 
	C1322.256836,846.707703 1320.300781,847.772400 1317.388550,849.771912 
	C1317.118164,845.340149 1316.758057,842.131287 1316.750610,838.921692 
	C1316.599243,773.932617 1316.454346,708.943481 1316.379517,643.954285 
	C1316.312378,585.643188 1316.380615,527.331909 1316.282471,469.020874 
	C1316.253296,451.695068 1316.101074,434.361725 1315.511841,417.048676 
	C1315.299194,410.798462 1317.661255,407.568298 1323.117310,404.806641 
	C1370.837646,380.652740 1420.252930,360.907104 1471.996704,347.240234 
	C1494.468140,341.304932 1516.915771,342.802032 1539.062256,349.359619 
	C1548.778687,352.236633 1557.458862,357.109161 1565.343994,364.658752 
z"/>
<path fill="#010101" opacity="1.000000" stroke="none" 
	d="
M2616.947266,902.867432 
	C2640.384033,807.688477 2663.584229,713.302551 2686.785889,618.916748 
	C2693.778076,590.472473 2700.771729,562.028625 2707.765625,533.584839 
	C2723.181641,470.887909 2738.587891,408.188599 2754.040283,345.500610 
	C2754.993652,341.632568 2756.125732,337.785278 2757.510498,334.053040 
	C2758.999756,330.039978 2761.815186,327.162659 2766.375488,327.161530 
	C2771.124023,327.160370 2773.464111,330.402802 2774.608887,334.537750 
	C2776.382812,340.947601 2778.189209,347.362335 2779.590332,353.859344 
	C2802.047607,457.982971 2824.366211,562.136658 2847.022217,666.216797 
	C2848.545898,673.216919 2847.265137,677.970703 2842.686279,683.272217 
	C2765.617188,772.512390 2688.721924,861.902588 2611.771484,951.245361 
	C2609.864502,953.459167 2607.768555,955.510010 2604.919434,957.306091 
	C2607.379639,939.016724 2612.825928,921.503784 2616.947266,902.867432 
z"/>
</svg>